<?xml version="1.0" encoding="utf-8"?>
<!-- Generator: Adobe Illustrator 24.0.2, SVG Export Plug-In . SVG Version: 6.00 Build 0)  -->
<svg version="1.1" id="Capa_1" xmlns="http://www.w3.org/2000/svg" xmlns:xlink="http://www.w3.org/1999/xlink" x="0px" y="0px"
	 viewBox="0 0 320 416" style="enable-background:new 0 0 320 416;" xml:space="preserve">
<style type="text/css">
	.st0{fill:#0069C0;}
</style>
<g>
	<g>
		<circle class="st0" cx="160.2" cy="48" r="12"/>
	</g>
</g>
<g>
	<g>
		<path class="st0" d="M320,96c0-17.7-14.3-32-32-32h-44.4c-5.9-6.6-13.5-11.6-22.3-14.1c-7.4-2.1-13-7.8-15.2-15.2
			C200.4,14.7,181.9,0,160,0c-21.9,0-40.4,14.7-46.1,34.7c-2.1,7.4-7.8,13-15.2,15.2c-8.7,2.5-16.3,7.5-22.3,14.1H32
			C14.3,64,0,78.3,0,96v288c0,17.7,14.3,32,32,32c73.5,0,163.8,0,256,0c17.7,0,32-14.3,32-32C320,293.1,320,206.1,320,96z M80,95.7
			c0.1-14.1,9.6-26.6,23.1-30.5c12.7-3.7,22.5-13.4,26.1-26.1C133.2,25.5,145.8,16,160,16c14.2,0,26.8,9.5,30.8,23.1
			c3.7,12.7,13.4,22.5,26.1,26.1C230.5,69.2,240,81.8,240,96v16H80V95.7z M288,400c-85.5,0-170.8,0-256,0c-8.8,0-16-7.2-16-16V96
			c0-8.8,7.2-16,16-16h34.7C65,84.9,64,90.1,64,95.6V128h192V96c0-5.6-1-11-2.8-16H288c8.8,0,16,7.2,16,16c0,45.7,0,260.3,0,288
			C304,392.8,296.8,400,288,400z"/>
	</g>
</g>
<g>
	<g>
		<polygon class="st0" points="226.5,194.5 130.3,290.7 88,248.3 76.6,259.6 130.3,313.3 237.8,205.8 		"/>
	</g>
</g>
</svg>
